<svg width="37.500000" height="22.916748" viewBox="0 0 37.5 22.9167" fill="none" xmlns="http://www.w3.org/2000/svg" xmlns:xlink="http://www.w3.org/1999/xlink">
	<desc>
			Created with Pixso.
	</desc>
	<defs/>
	<path id="Vector" d="M1.0415 2.08325C0.466309 2.08325 0 1.61694 0 1.04175C0 0.466309 0.466309 0 1.0415 0L36.4585 0C37.0337 0 37.5 0.466309 37.5 1.04175C37.5 1.61694 37.0337 2.08325 36.4585 2.08325L1.0415 2.08325ZM1.0415 12.5C0.466309 12.5 0 12.0334 0 11.4583C0 10.8831 0.466309 10.4167 1.0415 10.4167L36.4585 10.4167C37.0337 10.4167 37.5 10.8831 37.5 11.4583C37.5 12.0334 37.0337 12.5 36.4585 12.5L1.0415 12.5ZM1.0415 22.9167C0.466309 22.9167 0 22.4502 0 21.875C0 21.2998 0.466309 20.8333 1.0415 20.8333L36.4585 20.8333C37.0337 20.8333 37.5 21.2998 37.5 21.875C37.5 22.4502 37.0337 22.9167 36.4585 22.9167L1.0415 22.9167Z" fill="#FFFFFF" fill-opacity="1.000000" fill-rule="nonzero"/>
</svg>
