<svg width="32.000000" height="32.000000" viewBox="0 0 32 32" fill="none" xmlns="http://www.w3.org/2000/svg" xmlns:xlink="http://www.w3.org/1999/xlink">
	<desc>
			Created with Pixso.
	</desc>
	<defs>
		<clipPath id="clip11_748">
			<rect id="instagram 1" width="32.000000" height="32.000000" fill="white" fill-opacity="0"/>
		</clipPath>
	</defs>
	<rect id="instagram 1" width="32.000000" height="32.000000" fill="#FFFFFF" fill-opacity="0"/>
	<g clip-path="url(#clip11_748)">
		<path id="Vector" d="M16.3149 32C16.209 32 16.103 32 15.9963 31.9995C13.488 32.0054 11.1704 31.9419 8.9165 31.8047C6.8501 31.6787 4.96387 30.9648 3.46143 29.7397C2.01172 28.5576 1.02173 26.959 0.519043 24.9893C0.081543 23.2744 0.0583496 21.5913 0.0361328 19.9629C0.0200195 18.7949 0.00341797 17.4106 0 16.0029C0.00341797 14.5894 0.0200195 13.2051 0.0361328 12.0366C0.0583496 10.4087 0.081543 8.72559 0.519043 7.01025C1.02173 5.04053 2.01172 3.44238 3.46143 2.26025C4.96387 1.03516 6.8501 0.320801 8.91675 0.195312C11.1707 0.0581055 13.4888 -0.00585938 16.0024 0.000488281C18.5115 -0.00488281 20.8284 0.0581055 23.0823 0.195312C25.1487 0.320801 27.0349 1.03516 28.5374 2.26025C29.9873 3.44238 30.9771 5.04053 31.4797 7.01025C31.9172 8.7251 31.9404 10.4087 31.9626 12.0366C31.9788 13.2051 31.9956 14.5894 31.9988 15.9971L31.9988 16.0029C31.9956 17.4106 31.9788 18.7949 31.9626 19.9629C31.9404 21.5908 31.9175 23.2744 31.4797 24.9893C30.9771 26.959 29.9873 28.5576 28.5374 29.7397C27.0349 30.9648 25.1487 31.6787 23.0823 31.8047C20.9238 31.936 18.7065 32 16.3149 32ZM15.9963 29.4995C18.4639 29.5054 20.7295 29.4429 22.9304 29.3091C24.4929 29.2144 25.8477 28.707 26.9575 27.8022C27.9834 26.9653 28.6899 25.811 29.0574 24.3711C29.4216 22.9438 29.4426 21.4111 29.4629 19.9287C29.4788 18.7686 29.4954 17.394 29.4988 16C29.4954 14.6055 29.4788 13.2314 29.4629 12.0708C29.4426 10.5889 29.4216 9.05615 29.0574 7.62842C28.6899 6.18848 27.9834 5.03418 26.9575 4.19727C25.8477 3.29248 24.4929 2.78564 22.9304 2.69043C20.7295 2.55664 18.4639 2.49463 16.0022 2.5C13.5352 2.49414 11.2693 2.55664 9.06836 2.69043C7.50586 2.78564 6.15112 3.29248 5.04126 4.19727C4.01538 5.03418 3.30884 6.18848 2.94141 7.62842C2.57715 9.05615 2.55615 10.5884 2.53589 12.0708C2.52002 13.2324 2.50342 14.6074 2.5 16.0029C2.50342 17.3921 2.52002 18.7676 2.53589 19.9287C2.55615 21.4111 2.57715 22.9438 2.94141 24.3711C3.30884 25.811 4.01538 26.9653 5.04126 27.8022C6.15112 28.707 7.50586 29.2139 9.06836 29.3091C11.2693 29.4429 13.5356 29.5054 15.9963 29.4995ZM15.9368 23.8125C11.6292 23.8125 8.12427 20.3076 8.12427 16C8.12427 11.6919 11.6292 8.1875 15.9368 8.1875C20.2446 8.1875 23.7493 11.6919 23.7493 16C23.7493 20.3076 20.2446 23.8125 15.9368 23.8125ZM15.9368 10.6875C13.0076 10.6875 10.6243 13.0708 10.6243 16C10.6243 18.9292 13.0076 21.3125 15.9368 21.3125C18.8662 21.3125 21.2493 18.9292 21.2493 16C21.2493 13.0708 18.8662 10.6875 15.9368 10.6875ZM24.6243 5.6875C23.5889 5.6875 22.7493 6.52686 22.7493 7.5625C22.7493 8.59814 23.5889 9.4375 24.6243 9.4375C25.6599 9.4375 26.4993 8.59814 26.4993 7.5625C26.4993 6.52686 25.6599 5.6875 24.6243 5.6875Z" fill="#FFFFFF" fill-opacity="1.000000" fill-rule="nonzero"/>
	</g>
</svg>
