<svg width="30.975098" height="30.975098" viewBox="0 0 30.9751 30.9751" fill="none" xmlns="http://www.w3.org/2000/svg" xmlns:xlink="http://www.w3.org/1999/xlink">
	<desc>
			Created with Pixso.
	</desc>
	<defs/>
	<path id="Vector" d="M15.4875 0C18.3721 0.0327148 20.978 0.741699 23.3052 2.12695C25.6047 3.48438 27.5176 5.40869 28.8611 7.71631C30.2375 10.0576 30.9421 12.6797 30.9751 15.5815C30.8933 19.5527 29.6409 22.9438 27.2178 25.7563C24.7947 28.5684 21.6912 30.3081 18.4785 30.9751L18.4785 19.8418L21.5159 19.8418L22.2026 15.4668L17.6035 15.4668L17.6035 12.6016C17.5779 12.0073 17.7659 11.4238 18.1331 10.9561C18.501 10.4873 19.1487 10.2407 20.0762 10.2168L22.8535 10.2168L22.8535 6.38477C22.8137 6.37158 22.4355 6.3208 21.719 6.23242C20.9067 6.13721 20.0896 6.08643 19.2717 6.08057C17.4202 6.08887 15.9561 6.61133 14.8792 7.64697C13.802 8.68262 13.252 10.1812 13.2285 12.1421L13.2285 15.4668L9.72852 15.4668L9.72852 19.8418L13.2285 19.8418L13.2285 30.9751C9.28394 30.3081 6.18042 28.5684 3.75732 25.7563C1.33423 22.9438 0.0817871 19.5527 0 15.5815C0.0327148 12.6792 0.737305 10.0576 2.11401 7.71631C3.45728 5.40869 5.37012 3.48438 7.66968 2.12695C9.99683 0.742188 12.6028 0.0332031 15.4875 0Z" fill="#FFFFFF" fill-opacity="1.000000" fill-rule="evenodd"/>
</svg>
