<svg width="32.000000" height="32.000000" viewBox="0 0 32 32" fill="none" xmlns="http://www.w3.org/2000/svg" xmlns:xlink="http://www.w3.org/1999/xlink">
	<desc>
			Created with Pixso.
	</desc>
	<defs>
		<clipPath id="clip11_759">
			<rect id="twitter 1" width="32.000000" height="32.000000" fill="white" fill-opacity="0"/>
		</clipPath>
	</defs>
	<rect id="twitter 1" width="32.000000" height="32.000000" fill="#FFFFFF" fill-opacity="0"/>
	<g clip-path="url(#clip11_759)">
		<path id="_x30_4.Twitter" d="M28.7681 8.06348C27.8079 8.47949 26.8159 8.76758 25.76 8.89551C26.8479 8.25537 27.6799 7.23145 28.064 5.9834C27.04 6.5918 25.9199 7.00781 24.7361 7.26367C23.7759 6.23975 22.3999 5.59961 20.896 5.59961C17.9839 5.59961 15.6479 7.96777 15.6479 10.8477C15.6479 11.2637 15.6799 11.6475 15.7759 12.0317C11.4241 11.8398 7.58398 9.72754 4.99194 6.55957C3.13599 9.8877 5.21606 12.6396 6.59204 13.5674C5.76001 13.5674 4.92798 13.3115 4.22388 12.9277C4.22388 15.5195 6.04785 17.6636 8.41602 18.1436C7.90405 18.3037 6.75195 18.3994 6.04785 18.2397C6.71997 20.3198 8.67188 21.8555 10.9438 21.8877C9.15186 23.2954 6.52808 24.4155 3.16797 24.0635C5.50391 25.5674 8.25586 26.4316 11.2319 26.4316C20.896 26.4316 26.144 18.4316 26.144 11.5195C26.144 11.2954 26.144 11.0718 26.1121 10.8477C27.2 10.0479 28.0959 9.11963 28.7681 8.06348Z" fill="#FFFFFF" fill-opacity="1.000000" fill-rule="nonzero"/>
	</g>
</svg>
