<svg width="40.000000" height="40.000000" viewBox="0 0 40 40" fill="none" xmlns="http://www.w3.org/2000/svg" xmlns:xlink="http://www.w3.org/1999/xlink">
	<desc>
			Created with Pixso.
	</desc>
	<defs>
		<clipPath id="clip11_754">
			<rect id="pinterest 1" width="40.000000" height="40.000000" fill="white" fill-opacity="0"/>
		</clipPath>
	</defs>
	<rect id="pinterest 1" width="40.000000" height="40.000000" fill="#FFFFFF" fill-opacity="0"/>
	<g clip-path="url(#clip11_754)">
		<path id="Vector" d="M36 20.4805C36.24 11.3203 28.8799 3.88037 19.76 4.00049C11 4.12061 3.91992 11.3604 4 20.1206C4.04004 26.4004 7.71997 31.8003 13 34.4004C13.3198 34.5605 13.6799 34.3203 13.6399 33.9604C13.5999 32.9204 13.6399 31.8403 13.8398 30.9604C14.04 30.0806 14.8398 26.7202 15.3599 24.5205C15.5999 23.4404 15.6399 22.3203 15.4399 21.2402C15.3599 20.8804 15.3198 20.4805 15.3198 20.0005C15.3198 17.6406 16.6799 15.8804 18.3999 15.8804C19.8398 15.8804 20.5601 16.9604 20.5601 18.2803C20.5601 19.7202 19.6399 21.9204 19.1599 23.9604C18.76 25.6406 20 27.0405 21.6799 27.0405C24.72 27.0405 27.04 23.8403 27.04 19.2402C27.04 15.1606 24.1199 12.3203 19.9199 12.3203C15.0798 12.3203 12.24 15.9604 12.24 19.7202C12.24 21.2007 12.8 22.7603 13.52 23.6006C13.6399 23.7603 13.6799 23.9204 13.6399 24.0806C13.52 24.6006 13.24 25.7603 13.1599 26.0005C13.0798 26.3203 12.9199 26.3604 12.5999 26.2402C10.48 25.2007 9.11987 22.0806 9.11987 19.6006C9.11987 14.2402 13 9.32031 20.3599 9.32031C26.24 9.32031 30.8398 13.5205 30.8398 19.1606C30.8398 25.0405 27.1599 29.7202 22 29.7202C20.6399 29.7202 19.3599 29.1606 18.5999 28.4004C18.3599 28.1606 17.96 28.2803 17.8799 28.6006C17.5999 29.6006 17.2 31.2803 17.04 31.8003C16.8 32.7603 16.28 33.8804 15.72 34.8804C15.5601 35.1206 15.72 35.4805 16 35.5205C17.3198 35.8403 18.6799 36.0405 20.0798 36.0005C28.5601 35.9204 35.76 28.8804 36 20.4805Z" fill="#FFFFFF" fill-opacity="1.000000" fill-rule="nonzero"/>
	</g>
</svg>
