<svg width="16.875000" height="24.000000" viewBox="0 0 16.875 24" fill="none" xmlns="http://www.w3.org/2000/svg" xmlns:xlink="http://www.w3.org/1999/xlink">
	<desc>
			Created with Pixso.
	</desc>
	<defs/>
	<path id="Vector" d="M0 8.4375C0 12.6055 3.18188 17.1273 5.98962 21.035C6.65698 21.9634 7.29626 22.8525 7.85242 23.6869C7.98291 23.8826 8.20264 24 8.4375 24C8.67224 24 8.89197 23.8826 9.02246 23.6869C9.57861 22.8525 10.2179 21.9634 10.8853 21.035C13.6931 17.1273 16.875 12.6055 16.875 8.4375C16.875 3.78479 13.0902 0 8.4375 0C3.78479 0 0 3.78479 0 8.4375ZM12.6562 8.4375C12.6562 10.7639 10.7639 12.6562 8.4375 12.6562C6.11108 12.6562 4.21875 10.7639 4.21875 8.4375C4.21875 6.11108 6.11108 4.21875 8.4375 4.21875C10.7639 4.21875 12.6562 6.11108 12.6562 8.4375Z" fill="#FFFFFF" fill-opacity="1.000000" fill-rule="nonzero"/>
</svg>
