<svg width="186.765625" height="34.204102" viewBox="0 0 186.766 34.2041" fill="none" xmlns="http://www.w3.org/2000/svg" xmlns:xlink="http://www.w3.org/1999/xlink">
	<desc>
			Created with Pixso.
	</desc>
	<defs/>
	<path id="Travellian" d="M107.871 32.9907L107.871 0L112.485 0L112.485 32.9907L107.871 32.9907ZM119.309 32.9907L119.309 0L123.922 0L123.922 32.9907L119.309 32.9907ZM130.13 4.08643C130.13 3.30615 130.414 2.63232 130.98 2.06445C131.562 1.49707 132.249 1.21338 133.043 1.21338C133.865 1.21338 134.545 1.48975 135.083 2.04346C135.636 2.58252 135.913 3.26367 135.913 4.08643C135.913 4.90967 135.636 5.60498 135.083 6.17236C134.531 6.72607 133.85 7.00244 133.043 7.00244C132.249 7.00244 131.562 6.71875 130.98 6.15137C130.414 5.56934 130.13 4.88135 130.13 4.08643ZM13.3298 6.12988L13.3298 32.9907L8.27002 32.9907L8.27002 6.12988L0 6.12988L0 1.83057L21.5573 1.83057L21.5573 6.12988L13.3298 6.12988ZM26.0856 16.0273Q26.8296 14.0264 28.0414 13.0688Q28.2487 12.9077 28.4722 12.7739Q29.5782 12.1108 31.0815 12.1108C31.7335 12.1108 32.3713 12.189 32.9949 12.3452C33.6327 12.501 34.2563 12.728 34.8657 13.0259L33.2075 16.9424C32.8107 16.6587 32.3784 16.4531 31.9106 16.3252C31.4572 16.1831 30.9469 16.1123 30.38 16.1123C28.8492 16.1123 27.7509 16.7295 27.0847 17.9639Q26.0856 19.7944 26.0856 24.1367L26.0856 32.9907L21.4722 32.9907L21.4722 12.7705L26.0856 12.7705L26.0856 16.0273ZM56.4656 32.9907L51.8522 32.9907L51.8522 30.373C51.0302 31.5366 50.0664 32.4019 48.9609 32.9697C47.8695 33.5371 46.6152 33.8213 45.1979 33.8213C42.3491 33.8213 40.1027 32.8491 38.4586 30.9053C36.8287 28.9468 36.0138 26.272 36.0138 22.8809Q36.0138 18.4199 38.1523 15.5557Q38.33 15.3174 38.5225 15.0908Q39.6489 13.7524 41.0841 13.0156Q42.845 12.1108 45.0703 12.1108C46.7145 12.1108 48.1176 12.4585 49.2798 13.1538C50.4562 13.835 51.3136 14.8213 51.8522 16.1123L51.8522 12.8135L56.4656 12.8135L56.4656 32.9907ZM102.833 23.583L86.7179 23.583C86.8313 25.4702 87.3911 26.9463 88.3975 28.0103C89.4037 29.0605 90.743 29.5854 92.4155 29.5854C93.9037 29.5854 95.1438 29.2734 96.136 28.6489Q97.6241 27.7124 98.7296 25.6265L102.62 27.7974C101.486 29.8267 100.083 31.3379 98.4108 32.3311C96.7383 33.3242 94.7754 33.8213 92.5219 33.8213C89.2904 33.8213 86.7179 32.835 84.8046 30.8623Q84.2424 30.2832 83.7904 29.6274Q81.9346 26.937 81.9346 22.9658C81.9346 19.8018 82.9196 17.2051 84.8896 15.1758C86.8738 13.1323 89.418 12.1108 92.5219 12.1108C95.7675 12.1108 98.2974 13.0405 100.111 14.8989C101.926 16.7578 102.833 19.3618 102.833 22.7104L102.833 23.583ZM160.935 32.9907L156.322 32.9907L156.322 30.373C155.5 31.5366 154.536 32.4019 153.431 32.9697C152.339 33.5371 151.085 33.8213 149.668 33.8213C146.819 33.8213 144.572 32.8491 142.928 30.9053C141.298 28.9468 140.484 26.272 140.484 22.8809Q140.484 18.4199 142.622 15.5557L142.623 15.5547Q142.8 15.3174 142.992 15.0908C144.665 13.104 146.847 12.1108 149.54 12.1108C151.184 12.1108 152.587 12.4585 153.75 13.1538C154.926 13.835 155.783 14.8213 156.322 16.1123L156.322 12.8135L160.935 12.8135L160.935 32.9907ZM167.313 32.9907L167.313 12.8135L171.65 12.8135L171.65 16.1123Q173.032 14.0264 174.903 13.0688C176.15 12.4302 177.667 12.1108 179.452 12.1108Q181.706 12.1108 183.279 12.8345C184.342 13.3027 185.171 14.0054 185.766 14.9419C186.121 15.4951 186.376 16.1406 186.532 16.8784C186.688 17.6167 186.766 18.9077 186.766 20.7524L186.766 32.9907L182.11 32.9907L182.11 22.6255C182.11 19.9722 181.784 18.2124 181.132 17.3467C180.494 16.4673 179.353 16.0273 177.709 16.0273C176.632 16.0273 175.668 16.2261 174.818 16.623C173.982 17.0205 173.323 17.5811 172.841 18.3047C172.5 18.7871 172.26 19.4116 172.118 20.1777C171.99 20.9297 171.927 22.1357 171.927 23.7959L171.927 32.9907L167.313 32.9907ZM69.9229 34.2041L59.3568 12.8135L64.3954 12.8135L68.7961 22.9658C68.9379 23.2783 69.1079 23.7466 69.3063 24.3706C69.5048 24.9951 69.7102 25.7402 69.9229 26.6055C70.0646 25.9956 70.2275 25.3926 70.4119 24.7964C70.6102 24.186 70.8441 23.5762 71.1134 22.9658L75.4929 12.8135L80.5101 12.8135L69.9229 34.2041ZM130.747 32.9907L130.747 12.8135L135.36 12.8135L135.36 32.9907L130.747 32.9907ZM98.0493 20.4756C97.8651 19.0283 97.3123 17.9287 96.3911 17.1768C95.4698 16.4102 94.2084 16.0273 92.6068 16.0273C91.0903 16.0273 89.8715 16.396 88.9502 17.1338C88.0289 17.8721 87.384 18.9858 87.0156 20.4756L98.0493 20.4756ZM51.9797 22.8384C51.9797 20.7524 51.4907 19.1274 50.5128 17.9639C49.5491 16.8008 48.1956 16.2188 46.4523 16.2188C44.709 16.2188 43.3342 16.8218 42.3279 18.0278C41.3358 19.2197 40.8397 20.8799 40.8397 23.0083Q40.8397 26.2227 42.2854 27.9678Q42.7145 28.4858 43.2487 28.8501Q44.5137 29.7134 46.3672 29.7134C48.0255 29.7134 49.3719 29.0815 50.4065 27.8188C51.4553 26.5562 51.9797 24.896 51.9797 22.8384ZM156.449 22.8384Q156.449 19.7095 154.983 17.9639C154.019 16.8008 152.665 16.2188 150.922 16.2188C149.179 16.2188 147.804 16.8218 146.798 18.0278C145.805 19.2197 145.309 20.8799 145.309 23.0083C145.309 25.1514 145.791 26.8042 146.755 27.9678C147.719 29.1313 149.079 29.7134 150.837 29.7134Q152.134 29.7134 153.176 29.1982Q154.133 28.7256 154.876 27.8188C155.925 26.5562 156.449 24.896 156.449 22.8384Z" fill="#FFFFFF" fill-opacity="1.000000" fill-rule="evenodd"/>
</svg>
